# xmcd CD database file
#
# Track frame offsets:
#	225
#	7795
#	16670
#	35512
#	46942
#	61630
#	74570
#	89337
#	105650
#	116717
#	128275
#	146995
#
# Disc length: 2168 seconds
#
# Revision: 0
# Processed by: cddbd v1.5.2PL0 Copyright (c) Steve Scherf et al.
# Submitted via: CDex 1.51
#
DISCID=9408750c
DTITLE=Varios - Jazz. Grandes maestros Vol. 1
DYEAR=1995
DGENRE=Jazz
TTITLE0=After I say i'm sorry. Frank Sinatra
TTITLE1=Lover come back to me. Ella Fitzgerald
TTITLE2=Out of Nowhere. Miles Davis
TTITLE3=When the saints go marching in. Louis Armstrong
TTITLE4=The blues are brewing. Woody Herman
TTITLE5=Chopin prelude. Jimmy Lycerford
TTITLE6=Devil is a woman. Herb Jeffries
TTITLE7=Marjoun. Chick Corea
TTITLE8=That old black magic. Ella Fitgerald
TTITLE9=Oh look at there! ain't she pretty. Artie Shaw
TTITLE10=A city called heaven. Mahalia Jackson
TTITLE11=Lonely nights. B.B. King
EXTD=YEAR: 1995
EXTT0=
EXTT1=
EXTT2=
EXTT3=
EXTT4=
EXTT5=
EXTT6=
EXTT7=
EXTT8=
EXTT9=
EXTT10=
EXTT11=
PLAYORDER=
